<svg xmlns="http://www.w3.org/2000/svg" width="100%" height="100%" viewBox="0 0 1440 900" preserveAspectRatio="none">
  <defs>
    <linearGradient id="gradient" x1="0%" y1="0%" x2="100%" y2="100%">
      <stop offset="0%" style="stop-color:#1a2980;stop-opacity:1" />
      <stop offset="100%" style="stop-color:#26d0ce;stop-opacity:1" />
    </linearGradient>
  </defs>
  <rect width="100%" height="100%" fill="url(#gradient)" />
  <path fill="rgba(255,255,255,0.05)" d="M0,0L48,26.7C96,53,192,107,288,128C384,149,480,139,576,128C672,117,768,107,864,117.3C960,128,1056,160,1152,170.7C1248,181,1344,171,1392,165.3L1440,160L1440,900L1392,900C1344,900,1248,900,1152,900C1056,900,960,900,864,900C768,900,672,900,576,900C480,900,384,900,288,900C192,900,96,900,48,900L0,900Z"></path>
</svg>