<svg xmlns="http://www.w3.org/2000/svg" width="100%" height="100%" viewBox="0 0 1440 900">
  <defs>
    <linearGradient id="gradient" x1="0%" y1="0%" x2="100%" y2="100%">
      <stop offset="0%" stop-color="#667eea" />
      <stop offset="100%" stop-color="#764ba2" />
    </linearGradient>
  </defs>
  <rect width="100%" height="100%" fill="url(#gradient)" />
  <path d="M0,700L48,688C96,676,192,652,288,640C384,628,480,628,576,620C672,612,768,596,864,588C960,580,1056,580,1152,580C1248,580,1344,580,1392,580L1440,580L1440,900L1392,900C1344,900,1248,900,1152,900C1056,900,960,900,864,900C768,900,672,900,576,900C480,900,384,900,288,900C192,900,96,900,48,900L0,900Z" fill="#ffffff" fill-opacity="0.1"></path>
  <path d="M0,500L48,510C96,520,192,540,288,540C384,540,480,520,576,520C672,520,768,540,864,540C960,540,1056,520,1152,510C1248,500,1344,500,1392,500L1440,500L1440,900L1392,900C1344,900,1248,900,1152,900C1056,900,960,900,864,900C768,900,672,900,576,900C480,900,384,900,288,900C192,900,96,900,48,900L0,900Z" fill="#ffffff" fill-opacity="0.05"></path>
</svg>